<svg width="21" height="21" viewBox="0 0 21 21" fill="none" xmlns="http://www.w3.org/2000/svg">
<path d="M14.8293 1.74487H6.10602C3.69715 1.74487 1.74438 3.69764 1.74438 6.1065V14.8298C1.74438 17.2386 3.69715 19.1914 6.10602 19.1914H14.8293C17.2381 19.1914 19.1909 17.2386 19.1909 14.8298V6.1065C19.1909 3.69764 17.2381 1.74487 14.8293 1.74487Z" stroke="#D1D5DC" stroke-width="1.74465" stroke-linecap="round" stroke-linejoin="round"/>
<path d="M13.9572 9.9184C14.0649 10.6444 13.9409 11.3858 13.6029 12.0373C13.2648 12.6887 12.73 13.217 12.0744 13.547C11.4189 13.877 10.6759 13.9918 9.95132 13.8752C9.22671 13.7586 8.55732 13.4165 8.03835 12.8975C7.51939 12.3786 7.17728 11.7092 7.06068 10.9846C6.94408 10.26 7.05893 9.51704 7.3889 8.86147C7.71886 8.2059 8.24714 7.67106 8.8986 7.33304C9.55005 6.99501 10.2915 6.87101 11.0175 6.97866C11.758 7.08848 12.4436 7.43355 12.973 7.96292C13.5023 8.49228 13.8474 9.17787 13.9572 9.9184Z" stroke="#D1D5DC" stroke-width="1.74465" stroke-linecap="round" stroke-linejoin="round"/>
<path d="M15.2659 5.67065H15.274" stroke="#D1D5DC" stroke-width="1.74465" stroke-linecap="round" stroke-linejoin="round"/>
</svg>
