<svg width="21" height="21" viewBox="0 0 21 21" fill="none" xmlns="http://www.w3.org/2000/svg">
<path d="M13.9572 6.979C15.3454 6.979 16.6766 7.53044 17.6582 8.51199C18.6398 9.49355 19.1912 10.8248 19.1912 12.213V18.3192H15.7019V12.213C15.7019 11.7503 15.5181 11.3065 15.1909 10.9793C14.8637 10.6521 14.4199 10.4683 13.9572 10.4683C13.4945 10.4683 13.0508 10.6521 12.7236 10.9793C12.3964 11.3065 12.2126 11.7503 12.2126 12.213V18.3192H8.72327V12.213C8.72327 10.8248 9.2747 9.49355 10.2563 8.51199C11.2378 7.53044 12.5691 6.979 13.9572 6.979Z" stroke="#D1D5DC" stroke-width="1.74465" stroke-linecap="round" stroke-linejoin="round"/>
<path d="M5.23406 7.85132H1.74475V18.3192H5.23406V7.85132Z" stroke="#D1D5DC" stroke-width="1.74465" stroke-linecap="round" stroke-linejoin="round"/>
<path d="M3.4894 5.23418C4.45295 5.23418 5.23406 4.45307 5.23406 3.48953C5.23406 2.52598 4.45295 1.74487 3.4894 1.74487C2.52586 1.74487 1.74475 2.52598 1.74475 3.48953C1.74475 4.45307 2.52586 5.23418 3.4894 5.23418Z" stroke="#D1D5DC" stroke-width="1.74465" stroke-linecap="round" stroke-linejoin="round"/>
</svg>
