<svg width="36" height="36" viewBox="0 0 36 36" fill="none" xmlns="http://www.w3.org/2000/svg">
<path d="M23.4786 30.8157V27.8809C23.4786 26.3241 22.8602 24.8312 21.7594 23.7304C20.6586 22.6296 19.1657 22.0112 17.6089 22.0112H8.80446C7.24773 22.0112 5.75477 22.6296 4.65399 23.7304C3.55322 24.8312 2.93481 26.3241 2.93481 27.8809V30.8157" stroke="#FF6900" stroke-width="2.93482" stroke-linecap="round" stroke-linejoin="round"/>
<path d="M23.4788 4.59015C24.7374 4.91646 25.8521 5.65148 26.6479 6.67983C27.4437 7.70819 27.8754 8.97168 27.8754 10.272C27.8754 11.5723 27.4437 12.8357 26.6479 13.8641C25.8521 14.8925 24.7374 15.6275 23.4788 15.9538" stroke="#FF6900" stroke-width="2.93482" stroke-linecap="round" stroke-linejoin="round"/>
<path d="M32.2831 30.8157V27.8809C32.2821 26.5804 31.8493 25.317 31.0525 24.2891C30.2557 23.2613 29.1401 22.5272 27.8809 22.202" stroke="#FF6900" stroke-width="2.93482" stroke-linecap="round" stroke-linejoin="round"/>
<path d="M13.2066 16.1416C16.4483 16.1416 19.0762 13.5136 19.0762 10.2719C19.0762 7.03021 16.4483 4.40228 13.2066 4.40228C9.96484 4.40228 7.33691 7.03021 7.33691 10.2719C7.33691 13.5136 9.96484 16.1416 13.2066 16.1416Z" stroke="#FF6900" stroke-width="2.93482" stroke-linecap="round" stroke-linejoin="round"/>
</svg>
