<svg width="18" height="18" viewBox="0 0 18 18" fill="none" xmlns="http://www.w3.org/2000/svg">
<path d="M8.26272 2.11053C8.29485 1.93848 8.38615 1.78309 8.52079 1.67126C8.65543 1.55944 8.82494 1.49823 8.99996 1.49823C9.17499 1.49823 9.3445 1.55944 9.47914 1.67126C9.61378 1.78309 9.70508 1.93848 9.73721 2.11053L10.5255 6.27903C10.5814 6.57539 10.7255 6.84799 10.9387 7.06125C11.152 7.27452 11.4246 7.41854 11.721 7.47453L15.8895 8.26278C16.0615 8.29491 16.2169 8.38621 16.3287 8.52085C16.4405 8.65549 16.5018 8.825 16.5018 9.00003C16.5018 9.17505 16.4405 9.34456 16.3287 9.4792C16.2169 9.61385 16.0615 9.70514 15.8895 9.73728L11.721 10.5255C11.4246 10.5815 11.152 10.7255 10.9387 10.9388C10.7255 11.1521 10.5814 11.4247 10.5255 11.721L9.73721 15.8895C9.70508 16.0616 9.61378 16.217 9.47914 16.3288C9.3445 16.4406 9.17499 16.5018 8.99996 16.5018C8.82494 16.5018 8.65543 16.4406 8.52079 16.3288C8.38615 16.217 8.29485 16.0616 8.26272 15.8895L7.47446 11.721C7.41848 11.4247 7.27446 11.1521 7.06119 10.9388C6.84793 10.7255 6.57533 10.5815 6.27896 10.5255L2.11046 9.73728C1.93842 9.70514 1.78303 9.61385 1.6712 9.4792C1.55938 9.34456 1.49817 9.17505 1.49817 9.00003C1.49817 8.825 1.55938 8.65549 1.6712 8.52085C1.78303 8.38621 1.93842 8.29491 2.11046 8.26278L6.27896 7.47453C6.57533 7.41854 6.84793 7.27452 7.06119 7.06125C7.27446 6.84799 7.41848 6.57539 7.47446 6.27903L8.26272 2.11053Z" stroke="#FF6900" stroke-width="1.5" stroke-linecap="round" stroke-linejoin="round"/>
<path d="M15 1.50003V4.50003" stroke="#FF6900" stroke-width="1.5" stroke-linecap="round" stroke-linejoin="round"/>
<path d="M16.4999 3.00003H13.4999" stroke="#FF6900" stroke-width="1.5" stroke-linecap="round" stroke-linejoin="round"/>
<path d="M3 16.5C3.82843 16.5 4.5 15.8284 4.5 15C4.5 14.1716 3.82843 13.5 3 13.5C2.17157 13.5 1.5 14.1716 1.5 15C1.5 15.8284 2.17157 16.5 3 16.5Z" stroke="#FF6900" stroke-width="1.5" stroke-linecap="round" stroke-linejoin="round"/>
</svg>
