<svg width="35" height="35" viewBox="0 0 35 35" fill="none" xmlns="http://www.w3.org/2000/svg">
<path d="M17.5 1.9375C17.8564 1.9375 18.1982 2.07905 18.4502 2.33105C18.7022 2.58306 18.8438 2.92487 18.8438 3.28125V5.21875H19.6875C21.4936 5.22063 23.2258 5.93868 24.5029 7.21582C25.7801 8.49296 26.4981 10.2251 26.5 12.0312C26.5 12.3876 26.3584 12.7294 26.1064 12.9814C25.8544 13.2334 25.5126 13.375 25.1562 13.375C24.7999 13.375 24.4581 13.2334 24.2061 12.9814C23.9541 12.7294 23.8125 12.3876 23.8125 12.0312C23.8125 10.9372 23.3781 9.88785 22.6045 9.11426C21.8309 8.34067 20.7815 7.90625 19.6875 7.90625H15.3125C14.2185 7.90625 13.1691 8.34067 12.3955 9.11426C11.6219 9.88784 11.1875 10.9372 11.1875 12.0312C11.1875 13.1253 11.6219 14.1747 12.3955 14.9482C13.1691 15.7218 14.2185 16.1562 15.3125 16.1562H20.7812C22.5874 16.1581 24.3195 16.8762 25.5967 18.1533C26.8738 19.4305 27.5919 21.1626 27.5938 22.9688L27.585 23.3066C27.4998 24.9898 26.794 26.5869 25.5967 27.7842C24.3994 28.9815 22.8023 29.6873 21.1191 29.7725L20.7812 29.7812H18.8438V31.7188C18.8438 32.0751 18.7022 32.4169 18.4502 32.6689C18.1982 32.9209 17.8564 33.0625 17.5 33.0625C17.1436 33.0625 16.8018 32.9209 16.5498 32.6689C16.2978 32.4169 16.1562 32.0751 16.1562 31.7188V29.7812H14.2188C12.4126 29.7794 10.6805 29.0613 9.40332 27.7842C8.12618 26.507 7.40813 24.7749 7.40625 22.9688C7.40625 22.6124 7.5478 22.2706 7.7998 22.0186C8.05181 21.7666 8.39362 21.625 8.75 21.625C9.10638 21.625 9.44819 21.7666 9.7002 22.0186C9.9522 22.2706 10.0938 22.6124 10.0938 22.9688C10.0938 24.0628 10.5282 25.1122 11.3018 25.8857C12.0753 26.6593 13.1247 27.0938 14.2188 27.0938H20.7812C21.8753 27.0938 22.9247 26.6593 23.6982 25.8857C24.4718 25.1122 24.9062 24.0628 24.9062 22.9688C24.9062 21.8747 24.4718 20.8253 23.6982 20.0518C22.9247 19.2782 21.8753 18.8438 20.7812 18.8438H15.3125C13.5057 18.8438 11.7727 18.1262 10.4951 16.8486C9.21753 15.571 8.5 13.838 8.5 12.0312C8.5 10.2245 9.21753 8.49146 10.4951 7.21387C11.7727 5.93628 13.5057 5.21875 15.3125 5.21875H16.1562V3.28125C16.1562 2.92487 16.2978 2.58306 16.5498 2.33105C16.8018 2.07905 17.1436 1.9375 17.5 1.9375Z" fill="#FF6900" stroke="#FF6900" stroke-width="0.5"/>
</svg>
