<svg width="35" height="35" viewBox="0 0 35 35" fill="none" xmlns="http://www.w3.org/2000/svg">
<path d="M24.0625 2.53711C24.9725 2.53711 25.8448 2.89948 26.4883 3.54297C27.1318 4.18645 27.4941 5.05873 27.4941 5.96875V30.0312C27.4941 30.9413 27.1318 31.8135 26.4883 32.457C25.8448 33.1005 24.9725 33.4629 24.0625 33.4629H10.9375C10.0275 33.4629 9.1552 33.1005 8.51172 32.457C7.86823 31.8135 7.50586 30.9413 7.50586 30.0312V5.96875C7.50586 5.05873 7.86823 4.18645 8.51172 3.54297C9.1552 2.89948 10.0275 2.53711 10.9375 2.53711H24.0625ZM10.9375 5.02539C10.6872 5.02539 10.4475 5.12477 10.2705 5.30176C10.0935 5.47875 9.99414 5.71845 9.99414 5.96875V30.0312C9.99414 30.2815 10.0935 30.5213 10.2705 30.6982C10.4475 30.8752 10.6872 30.9746 10.9375 30.9746H24.0625C24.3128 30.9746 24.5525 30.8752 24.7295 30.6982C24.9065 30.5213 25.0059 30.2815 25.0059 30.0312V5.96875C25.0059 5.71845 24.9065 5.47874 24.7295 5.30176C24.5525 5.12477 24.3128 5.02539 24.0625 5.02539H10.9375ZM17.5 6.91211C17.9749 6.91211 18.4308 7.10072 18.7666 7.43652C19.1024 7.77233 19.291 8.22822 19.291 8.70312C19.291 9.05728 19.186 9.40378 18.9893 9.69824C18.7926 9.99262 18.5126 10.2219 18.1855 10.3574C17.8584 10.493 17.4977 10.5281 17.1504 10.459C16.8032 10.3899 16.4837 10.2201 16.2334 9.96973C15.9831 9.71938 15.8133 9.39995 15.7441 9.05273C15.675 8.70539 15.7102 8.34477 15.8457 8.01758C15.9812 7.69051 16.2105 7.41057 16.5049 7.21387C16.7993 7.01711 17.1458 6.91211 17.5 6.91211Z" fill="#FF6900" stroke="#FF6900" stroke-width="0.3"/>
</svg>
