<svg width="18" height="18" viewBox="0 0 18 18" fill="none" xmlns="http://www.w3.org/2000/svg">
<path d="M2.99999 10.5C2.85807 10.5005 2.71892 10.4607 2.59871 10.3852C2.4785 10.3098 2.38217 10.2018 2.32091 10.0737C2.25964 9.94572 2.23596 9.80294 2.25262 9.66199C2.26927 9.52105 2.32558 9.38772 2.41499 9.2775L9.83999 1.6275C9.89569 1.56321 9.97159 1.51977 10.0552 1.5043C10.1389 1.48883 10.2253 1.50226 10.3003 1.54238C10.3753 1.5825 10.4344 1.64692 10.468 1.72508C10.5016 1.80324 10.5076 1.89049 10.485 1.9725L9.04499 6.4875C9.00253 6.60114 8.98827 6.72339 9.00344 6.84376C9.0186 6.96412 9.06274 7.07901 9.13206 7.17857C9.20138 7.27813 9.29382 7.35939 9.40145 7.41537C9.50908 7.47135 9.62868 7.50039 9.74999 7.5H15C15.1419 7.49952 15.2811 7.53931 15.4013 7.61477C15.5215 7.69022 15.6178 7.79823 15.6791 7.92626C15.7403 8.05428 15.764 8.19706 15.7474 8.33801C15.7307 8.47895 15.6744 8.61228 15.585 8.7225L8.15999 16.3725C8.1043 16.4368 8.0284 16.4802 7.94476 16.4957C7.86112 16.5112 7.7747 16.4977 7.6997 16.4576C7.62469 16.4175 7.56555 16.3531 7.53199 16.2749C7.49843 16.1968 7.49244 16.1095 7.51499 16.0275L8.95499 11.5125C8.99745 11.3989 9.01172 11.2766 8.99655 11.1562C8.98139 11.0359 8.93725 10.921 8.86793 10.8214C8.7986 10.7219 8.70616 10.6406 8.59854 10.5846C8.49091 10.5286 8.37131 10.4996 8.24999 10.5H2.99999Z" stroke="#FF6900" stroke-width="1.5" stroke-linecap="round" stroke-linejoin="round"/>
</svg>
