<svg width="18" height="18" viewBox="0 0 18 18" fill="none" xmlns="http://www.w3.org/2000/svg">
<path d="M4.50012 6.75003C5.74276 6.75003 6.75012 5.74267 6.75012 4.50003C6.75012 3.25739 5.74276 2.25003 4.50012 2.25003C3.25748 2.25003 2.25012 3.25739 2.25012 4.50003C2.25012 5.74267 3.25748 6.75003 4.50012 6.75003Z" stroke="#FF6900" stroke-width="1.5" stroke-linecap="round" stroke-linejoin="round"/>
<path d="M6.09009 6.09003L9.00009 9.00003" stroke="#FF6900" stroke-width="1.5" stroke-linecap="round" stroke-linejoin="round"/>
<path d="M15.0001 3.00003L6.09009 11.91" stroke="#FF6900" stroke-width="1.5" stroke-linecap="round" stroke-linejoin="round"/>
<path d="M4.50012 15.75C5.74276 15.75 6.75012 14.7427 6.75012 13.5C6.75012 12.2574 5.74276 11.25 4.50012 11.25C3.25748 11.25 2.25012 12.2574 2.25012 13.5C2.25012 14.7427 3.25748 15.75 4.50012 15.75Z" stroke="#FF6900" stroke-width="1.5" stroke-linecap="round" stroke-linejoin="round"/>
<path d="M11.1001 11.1L15.0001 15" stroke="#FF6900" stroke-width="1.5" stroke-linecap="round" stroke-linejoin="round"/>
</svg>
