<svg width="34" height="34" viewBox="0 0 34 34" fill="none" xmlns="http://www.w3.org/2000/svg">
<path d="M30.8775 28.6224L24.5703 22.3125C26.4614 19.8481 27.3443 16.7567 27.0399 13.6653C26.7355 10.5739 25.2666 7.71397 22.9311 5.66577C20.5957 3.61756 17.5686 2.5344 14.4639 2.63601C11.3592 2.73762 8.40939 4.01639 6.21286 6.21292C4.01633 8.40945 2.73756 11.3593 2.63595 14.4639C2.53434 17.5686 3.6175 20.5958 5.66571 22.9312C7.71391 25.2666 10.5738 26.7356 13.6652 27.04C16.7566 27.3443 19.8481 26.4614 22.3124 24.5703L28.625 30.8842C28.7733 31.0325 28.9493 31.1501 29.143 31.2303C29.3367 31.3105 29.5443 31.3518 29.7539 31.3518C29.9636 31.3518 30.1712 31.3105 30.3649 31.2303C30.5586 31.1501 30.7346 31.0325 30.8828 30.8842C31.0311 30.736 31.1487 30.56 31.2289 30.3663C31.3091 30.1726 31.3504 29.965 31.3504 29.7553C31.3504 29.5457 31.3091 29.338 31.2289 29.1444C31.1487 28.9507 31.0311 28.7747 30.8828 28.6264L30.8775 28.6224ZM5.84369 14.875C5.84369 13.0888 6.37336 11.3427 7.36573 9.85751C8.3581 8.37232 9.76859 7.21477 11.4188 6.53121C13.0691 5.84766 14.885 5.66881 16.6369 6.01728C18.3887 6.36576 19.998 7.2259 21.261 8.48894C22.524 9.75199 23.3842 11.3612 23.7327 13.1131C24.0811 14.865 23.9023 16.6809 23.2187 18.3311C22.5352 19.9814 21.3776 21.3918 19.8924 22.3842C18.4073 23.3766 16.6612 23.9062 14.8749 23.9062C12.4805 23.9038 10.1848 22.9515 8.4916 21.2583C6.79845 19.5652 5.84615 17.2695 5.84369 14.875Z" fill="#FF6900"/>
</svg>
