<svg width="18" height="18" viewBox="0 0 18 18" fill="none" xmlns="http://www.w3.org/2000/svg">
<path d="M11.0249 4.72499C10.8874 4.86519 10.8105 5.05368 10.8105 5.24999C10.8105 5.44631 10.8874 5.63479 11.0249 5.77499L12.2249 6.97499C12.3651 7.11241 12.5535 7.18938 12.7499 7.18938C12.9462 7.18938 13.1347 7.11241 13.2749 6.97499L15.6044 4.64624C15.8444 4.40474 16.2516 4.48124 16.3416 4.80974C16.5682 5.6339 16.5554 6.50554 16.3047 7.32269C16.054 8.13983 15.5757 8.86867 14.9259 9.42392C14.2761 9.97917 13.4815 10.3379 12.6353 10.458C11.7891 10.5782 10.9261 10.4549 10.1474 10.1025L4.21486 16.035C3.91649 16.3333 3.51186 16.5008 3.08997 16.5007C2.66808 16.5006 2.26351 16.333 1.96524 16.0346C1.66697 15.7362 1.49944 15.3316 1.49951 14.9097C1.49958 14.4878 1.66724 14.0833 1.96561 13.785L7.89811 7.85249C7.54572 7.07378 7.42239 6.2108 7.54256 5.36455C7.66273 4.5183 8.02143 3.72378 8.57668 3.07395C9.13193 2.42413 9.86077 1.94587 10.6779 1.69516C11.4951 1.44445 12.3667 1.43164 13.1909 1.65824C13.5194 1.74824 13.5959 2.15474 13.3551 2.39624L11.0249 4.72499Z" stroke="#FF6900" stroke-width="1.5" stroke-linecap="round" stroke-linejoin="round"/>
</svg>
