<svg width="35" height="35" viewBox="0 0 35 35" fill="none" xmlns="http://www.w3.org/2000/svg">
<path d="M17.501 2.03729C17.9742 2.03735 18.437 2.17899 18.8301 2.44257C19.223 2.70613 19.5293 3.08009 19.709 3.51776L22.7871 10.9641L30.7627 11.6086C31.2328 11.6465 31.6816 11.8221 32.0518 12.1144C32.4219 12.4067 32.6969 12.8026 32.8428 13.2512C32.99 13.702 33.0003 14.1862 32.8721 14.6428C32.7438 15.0995 32.4826 15.5083 32.1221 15.8166L26.0391 21.0646L27.8994 28.9152C28.009 29.3744 27.9809 29.8561 27.8174 30.299C27.6539 30.7418 27.363 31.1266 26.9814 31.4045C26.5999 31.6823 26.1444 31.8408 25.6729 31.8605C25.2012 31.8802 24.7335 31.76 24.3301 31.5148V31.5139L17.5 27.3127L10.6748 31.5139H10.6738C10.2706 31.7619 9.80313 31.8846 9.33008 31.8664C8.8569 31.8481 8.39955 31.6899 8.0166 31.4113C7.63373 31.1328 7.34184 30.7464 7.17871 30.3019C7.01578 29.8577 6.98889 29.3751 7.10059 28.9152L8.95312 21.0666L2.87012 15.8166C2.51264 15.5078 2.254 15.1006 2.12695 14.6457C1.99991 14.1907 2.01036 13.7083 2.15625 13.259C2.30216 12.8096 2.57715 12.4129 2.94727 12.1193C3.31729 11.8259 3.76576 11.6484 4.23633 11.6086H4.2373L12.2148 10.9631L15.293 3.51776C15.4727 3.08005 15.7789 2.7061 16.1719 2.44257C16.565 2.17896 17.0276 2.03729 17.501 2.03729ZM14.2207 12.6164C14.134 12.8278 13.9907 13.0113 13.8066 13.1467C13.6684 13.2483 13.5109 13.3199 13.3447 13.3576L13.1758 13.384L4.6543 14.0705L11.1533 19.676C11.326 19.8248 11.4542 20.0187 11.5244 20.2355C11.5946 20.4524 11.6035 20.6847 11.5508 20.9064L9.56836 29.2707L16.8486 24.7922C17.0446 24.6717 17.27 24.6076 17.5 24.6076C17.73 24.6076 17.9554 24.6717 18.1514 24.7922L25.4307 29.2678L23.4492 20.9035C23.3965 20.6817 23.4054 20.4495 23.4756 20.2326C23.5457 20.0159 23.6742 19.8228 23.8467 19.674L30.3447 14.0685L21.8291 13.381C21.6007 13.3626 21.3815 13.2816 21.1963 13.1467C21.0111 13.0117 20.8668 12.8281 20.7793 12.6164L17.4951 4.68573L14.2207 12.6164Z" fill="#FF6900" stroke="#FF6900" stroke-width="0.3"/>
</svg>
