<svg width="120" height="33" viewBox="0 0 120 33" fill="none" xmlns="http://www.w3.org/2000/svg">
<path d="M34.671 30.7531C33.0321 30.7531 31.4731 30.4541 29.9941 29.8562C28.535 29.2383 27.3657 28.5009 26.4863 27.6438L27.9554 21.6644C28.6549 22.8802 29.6443 23.8967 30.9235 24.7139C32.2026 25.5112 33.5118 25.9098 34.8509 25.9098C35.9502 25.9098 36.8097 25.6108 37.4293 25.0129C38.0688 24.4149 38.3886 23.6874 38.3886 22.8304C38.3886 22.1328 38.2188 21.5548 37.879 21.0964C37.5592 20.6379 37.1694 20.2593 36.7097 19.9603C36.27 19.6613 35.8803 19.4321 35.5405 19.2727L32.3625 17.6881C31.4431 17.2297 30.5637 16.6915 29.7242 16.0737C28.8848 15.4359 28.1952 14.6486 27.6556 13.7118C27.1359 12.775 26.8761 11.619 26.8761 10.2437C26.8761 8.72897 27.2158 7.40353 27.8954 6.26744C28.595 5.13136 29.5743 4.24441 30.8335 3.60661C32.0927 2.96881 33.5718 2.6499 35.2707 2.6499C36.8696 2.6499 38.2887 2.90901 39.5279 3.42723C40.7871 3.92551 41.8064 4.46366 42.5859 5.04167L41.2068 10.8716C40.4073 9.83516 39.448 9.00801 38.3287 8.39013C37.2294 7.75233 36.1301 7.43343 35.0308 7.43343C34.0514 7.43343 33.2919 7.68257 32.7523 8.18085C32.2326 8.67914 31.9728 9.29701 31.9728 10.0345C31.9728 10.4929 32.0727 10.9015 32.2726 11.2602C32.4924 11.619 32.8022 11.9379 33.202 12.217C33.6017 12.496 34.0714 12.775 34.6111 13.0541L37.819 14.6386C38.3587 14.8977 38.9483 15.2366 39.5879 15.6551C40.2275 16.0537 40.8471 16.562 41.4467 17.1799C42.0463 17.7977 42.536 18.5452 42.9157 19.4221C43.2955 20.2792 43.4854 21.3057 43.4854 22.5015C43.4854 24.0562 43.1256 25.4613 42.4061 26.717C41.6865 27.9528 40.6672 28.9394 39.348 29.6768C38.0489 30.3944 36.4899 30.7531 34.671 30.7531Z" fill="white"/>
<path d="M44.8924 30.1552V1.45402H50.109V13.5623C50.7486 12.9245 51.4781 12.4462 52.2976 12.1273C53.1371 11.7884 54.0265 11.619 54.9659 11.619C56.2451 11.619 57.4343 11.9279 58.5336 12.5458C59.6529 13.1438 60.5523 14.0307 61.2319 15.2067C61.9314 16.3627 62.2812 17.7678 62.2812 19.4221V30.1552H57.0645V20.1098C57.0645 19.1132 56.7647 18.2263 56.1651 17.4489C55.5655 16.6716 54.7061 16.2829 53.5868 16.2829C52.6874 16.2829 51.8779 16.5919 51.1584 17.2098C50.4588 17.8077 50.109 18.7544 50.109 20.05V30.1552H44.8924Z" fill="white"/>
<path d="M72.2561 30.6335C70.5972 30.6335 69.0882 30.205 67.7291 29.348C66.3699 28.4909 65.2806 27.3548 64.4612 25.9397C63.6617 24.5046 63.2619 22.9201 63.2619 21.1861C63.2619 19.452 63.6617 17.8675 64.4612 16.4324C65.2806 14.9974 66.3699 13.8613 67.7291 13.0242C69.0882 12.1671 70.5972 11.7386 72.2561 11.7386C73.4154 11.7386 74.4747 11.9479 75.4341 12.3664C76.3935 12.7651 77.2129 13.3231 77.8925 14.0407V12.217H82.3896V30.1552H77.8925V28.3315C77.2129 29.049 76.3935 29.617 75.4341 30.0356C74.4747 30.4342 73.4154 30.6335 72.2561 30.6335ZM72.8857 26.0593C73.7652 26.0593 74.5647 25.84 75.2842 25.4015C76.0037 24.9631 76.5734 24.3751 76.9931 23.6376C77.4328 22.9002 77.6527 22.083 77.6527 21.1861C77.6527 20.2892 77.4328 19.472 76.9931 18.7345C76.5734 17.997 76.0037 17.4091 75.2842 16.9706C74.5647 16.5321 73.7652 16.3128 72.8857 16.3128C72.0063 16.3128 71.2068 16.5321 70.4873 16.9706C69.7677 17.4091 69.1881 17.997 68.7484 18.7345C68.3287 19.472 68.1188 20.2892 68.1188 21.1861C68.1188 22.083 68.3287 22.9002 68.7484 23.6376C69.1881 24.3751 69.7677 24.9631 70.4873 25.4015C71.2068 25.84 72.0063 26.0593 72.8857 26.0593Z" fill="white"/>
<path d="M96.5731 30.1552L89.4077 20.2892L95.3139 12.217H100.92L95.104 19.8407L102.719 30.1552H96.5731ZM84.6108 30.1552V1.45402H89.8274V30.1552H84.6108Z" fill="white"/>
<path d="M109.867 30.6335C108.208 30.6335 106.699 30.205 105.339 29.348C103.98 28.4909 102.891 27.3548 102.072 25.9397C101.272 24.5046 100.872 22.9201 100.872 21.1861C100.872 19.452 101.272 17.8675 102.072 16.4324C102.891 14.9974 103.98 13.8613 105.339 13.0242C106.699 12.1671 108.208 11.7386 109.867 11.7386C111.026 11.7386 112.085 11.9479 113.044 12.3664C114.004 12.7651 114.823 13.3231 115.503 14.0407V12.217H120V30.1552H115.503V28.3315C114.823 29.049 114.004 29.617 113.044 30.0356C112.085 30.4342 111.026 30.6335 109.867 30.6335ZM110.496 26.0593C111.376 26.0593 112.175 25.84 112.895 25.4015C113.614 24.9631 114.184 24.3751 114.603 23.6376C115.043 22.9002 115.263 22.083 115.263 21.1861C115.263 20.2892 115.043 19.472 114.603 18.7345C114.184 17.997 113.614 17.4091 112.895 16.9706C112.175 16.5321 111.376 16.3128 110.496 16.3128C109.617 16.3128 108.817 16.5321 108.098 16.9706C107.378 17.4091 106.799 17.997 106.359 18.7345C105.939 19.472 105.729 20.2892 105.729 21.1861C105.729 22.083 105.939 22.9002 106.359 23.6376C106.799 24.3751 107.378 24.9631 108.098 25.4015C108.817 25.84 109.617 26.0593 110.496 26.0593Z" fill="white"/>
<path d="M14.893 0L23.3929 5.47299L8.17564 17.9194C6.94377 18.927 5.15388 18.7129 4.17783 17.4413L0.0541026 12.0687L14.893 0Z" fill="white"/>
<path d="M8.44253 33L0 27.4252L15.2172 14.9787C16.4491 13.9712 18.239 14.1853 19.215 15.4569L23.3388 20.8295L8.44253 33Z" fill="white"/>
</svg>
